<?xml version="1.0" encoding="iso-8859-1"?>
<!-- Generator: Adobe Illustrator 19.1.1, SVG Export Plug-In . SVG Version: 6.00 Build 0)  -->
<svg version="1.1"  xmlns="http://www.w3.org/2000/svg" xmlns:xlink="http://www.w3.org/1999/xlink" x="0px" y="0px"
	 viewBox="0 0 48 48" style="enable-background:new 0 0 48 48;" xml:space="preserve">
<path style="fill:#FFB74D;" d="M11.5,8c1.933,0,3.5,1.568,3.5,3.5c0,1.932-1.567,3.5-3.5,3.5S8,13.432,8,11.5
	C8,9.568,9.567,8,11.5,8"/>
<rect x="24.5" y="21" style="fill:#546E7A;" width="15.5" height="2"/>
<path style="fill:#FFB74D;" d="M22.999,38c-0.461,0-0.924-0.158-1.301-0.48l-6.291-5.395L4.329,33.973
	c-1.101,0.18-2.12-0.557-2.302-1.645C1.846,31.238,3.911,28.182,5,28l10.671,0.027c0.583-0.104,1.181,0.07,1.631,0.453l7,6
	c0.839,0.719,0.936,1.982,0.217,2.82C24.123,37.762,23.562,38,22.999,38z"/>
<path style="fill:#BA68C8;" d="M3.497,34c-0.566,0-1.141-0.137-1.673-0.43c-1.697-0.924-2.322-3.051-1.397-4.746l5-11
	c0.925-1.695,3.053-2.324,4.748-1.394c1.697,0.924,3.75,1.875,2.824,3.57L6.572,32.176C5.937,33.34,4.736,34,3.497,34z"/>
<polygon style="fill:#AB47BC;" points="7,28 9,28 12.618,20.723 10.687,20.25 "/>
<path style="fill:#FFB74D;" d="M24.501,23c-0.128,0-0.258-0.016-0.388-0.051L9,20c0,0-2-0.139-2-2.427
	c0-1.67,2.082-1.737,2.887-1.522l15,4c0.8,0.215,1.276,1.035,1.063,1.836C25.771,22.559,25.164,23,24.501,23z"/>
<polyline style="fill:none;stroke:#B0BEC5;stroke-width:2;" points="0,39 35.5,39 43,26 "/>
<circle style="fill:#455A64;" cx="42.5" cy="23.5" r="5.5"/>
<circle style="fill:#B0BEC5;" cx="42.5" cy="23.5" r="2.5"/>
<path style="fill:#455A64;" d="M13,38v-2c0-1.105-0.896-2-2-2H2c-1.105,0-2,0.895-2,2v2H13z"/>
<path style="fill:#FF754C;" d="M0.802,28l-0.375,0.824c-0.926,1.695-0.301,3.822,1.397,4.746C2.356,33.863,2.931,34,3.497,34
	c0.099,0,0.197-0.011,0.295-0.02c0.175,0.018,0.354,0.022,0.537-0.008L15,32.192V28H0.802z"/>
</svg>
