<?xml version="1.0" encoding="iso-8859-1"?>
<!-- Generator: Adobe Illustrator 19.1.1, SVG Export Plug-In . SVG Version: 6.00 Build 0)  -->
<svg version="1.1"  xmlns="http://www.w3.org/2000/svg" xmlns:xlink="http://www.w3.org/1999/xlink" x="0px" y="0px"
	 viewBox="0 0 48 48" style="enable-background:new 0 0 48 48;" xml:space="preserve">
<rect x="4" y="34" style="fill:#546E7A;" width="40" height="2"/>
<path style="fill:#FFB74D;" d="M8.5,14c1.933,0,3.5,1.567,3.5,3.5c0,1.932-1.567,3.5-3.5,3.5S5,19.432,5,17.5
	C5,15.567,6.567,14,8.5,14"/>
<path style="fill:#FFB74D;" d="M41.999,34c-0.247,0-0.498-0.046-0.742-0.144l-15-6c-1.025-0.41-1.524-1.574-1.114-2.6
	c0.411-1.026,1.571-1.527,2.601-1.114l15,6c1.025,0.41,1.524,1.574,1.114,2.6C43.544,33.525,42.793,34,41.999,34z"/>
<path style="fill:#FF754C;" d="M27.107,28c-0.367,0-0.74-0.059-1.107-0.18l-10.606-4c-1.834-0.612-2.825-2.594-2.214-4.426
	c0.612-1.836,2.597-2.824,4.427-2.215l11.007,4.098c1.834,0.609,2.825,2.594,2.214,4.426C30.339,27.17,28.572,28,27.107,28z"/>
<path style="fill:#E64A19;" d="M28.786,26.5c-0.367,0-0.74-0.059-1.107-0.18l-10.606-4c-0.404-0.135-0.759-0.345-1.073-0.597v2.325
	l10,3.772c0.367,0.121,0.74,0.18,1.107,0.18c1.334,0,2.908-0.695,3.549-1.926C30.056,26.348,29.397,26.5,28.786,26.5z"/>
<path style="fill:#FFB74D;" d="M13.499,34c-0.328,0-0.659-0.107-0.937-0.328c-0.646-0.52-0.751-1.461-0.233-2.109l3.4-4.25
	l-2.448-4.906c-0.37-0.742-0.281-2-0.281-2c1.125-0.781,2.471-0.316,2.842,0.422l3,6c0.262,0.524,0.195,1.152-0.171,1.609l-4,5
	C14.375,33.809,13.939,34,13.499,34z"/>
<path style="fill:#9575CD;" d="M35.127,27.096l-4.231-1.692c0.416-1.744-0.546-3.55-2.281-4.127L26,27.82
	c0.141,0.046,7.588,2.969,7.588,2.969L35.127,27.096z"/>
</svg>
